<?xml version="1.0" encoding="UTF-8" standalone="no"?>
<!-- Created with Inkscape (http://www.inkscape.org/) -->

<svg
   width="82.046051mm"
   height="81.996681mm"
   viewBox="0 0 82.046051 81.996681"
   version="1.1"
   id="svg1"
   xml:space="preserve"
   xmlns:inkscape="http://www.inkscape.org/namespaces/inkscape"
   xmlns:sodipodi="http://sodipodi.sourceforge.net/DTD/sodipodi-0.dtd"
   xmlns="http://www.w3.org/2000/svg"
   xmlns:svg="http://www.w3.org/2000/svg"><sodipodi:namedview
     id="namedview1"
     pagecolor="#505050"
     bordercolor="ffffff"
     borderopacity="1"
     inkscape:showpageshadow="0"
     inkscape:pageopacity="0"
     inkscape:pagecheckerboard="1"
     inkscape:deskcolor="#505050"
     inkscape:document-units="mm"
     inkscape:zoom="1.6605499"
     inkscape:cx="396.55537"
     inkscape:cy="561.25984"
     inkscape:window-width="3840"
     inkscape:window-height="2070"
     inkscape:window-x="0"
     inkscape:window-y="30"
     inkscape:window-maximized="1"
     inkscape:current-layer="layer1" /><defs
     id="defs1" /><g
     inkscape:label="Layer 1"
     inkscape:groupmode="layer"
     id="layer1"
     transform="translate(-90.112421,-94.113561)"><path
       style="fill:#3b3b3b;fill-opacity:1"
       d="m 128.74832,176.04371 c -7.71898,-0.54098 -14.30266,-2.77513 -20.50799,-6.95933 -1.52644,-1.02927 -3.37066,-2.40393 -4.09827,-3.0548 l -1.32291,-1.1834 28.31042,0.005 28.31041,0.005 -1.32291,1.18455 c -3.13997,2.81155 -8.83348,6.1462 -13.09688,7.67075 -4.7618,1.70277 -11.49268,2.66773 -16.27187,2.33278 z M 96.336856,157.29467 v -2.77812 h -0.92605 c -0.64676,0 -0.92604,-0.11969 -0.92604,-0.39688 v -0.39687 h 2.38125 2.38125 v 0.39687 c 0,0.28768 -0.29587,0.39688 -1.07535,0.39688 h -1.07536 l 0.0832,2.77868 0.0832,2.77868 -0.46302,-5.5e-4 -0.46302,-5.6e-4 z m 4.026054,-0.43003 -0.0469,-3.20816 1.32038,0.12687 c 0.74569,0.0716 1.54954,0.33425 1.84687,0.60333 0.68741,0.6221 0.67185,1.83659 -0.0326,2.54099 l -0.55904,0.55904 0.82362,1.16849 c 0.93972,1.33319 0.96589,1.4176 0.43946,1.4176 -0.21129,0 -0.75279,-0.53578 -1.20333,-1.19063 -0.52177,-0.75836 -1.01635,-1.19062 -1.36227,-1.19062 h -0.5431 l 0.0947,1.19062 0.0947,1.19063 h -0.41283 -0.41284 z m 2.53237,-0.45466 c 0.18739,-0.23891 0.30645,-0.67226 0.26458,-0.96299 -0.0821,-0.57032 -1.36544,-1.32879 -1.79699,-1.06207 -0.29465,0.1821 -0.36393,2.32427 -0.0842,2.60398 0.26442,0.26443 1.22491,-0.0795 1.61662,-0.57892 z m 2.28734,3.1998 c 0.57087,-1.76005 2.24113,-5.74616 2.43482,-5.81072 0.19681,-0.0656 2.47775,5.54723 2.47775,6.09711 0,0.53293 -0.78317,0.0585 -1.01869,-0.61712 l -0.2767,-0.79375 h -1.31566 -1.31566 l -0.17433,0.79375 c -0.0984,0.44819 -0.34573,0.79375 -0.56802,0.79375 -0.25576,0 -0.34107,-0.16222 -0.24351,-0.46302 z m 2.87391,-3.14804 -0.41904,-1.22981 -0.32567,0.6345 c -0.17912,0.34897 -0.40807,0.90238 -0.50878,1.22981 l -0.18309,0.59531 h 0.92781 0.92781 z m 3.36158,0.43606 c 0,-1.74625 0.0893,-3.17269 0.19843,-3.16985 0.10914,0.003 1.03188,1.00636 2.05052,2.23006 1.01865,1.22371 1.95631,2.23343 2.0837,2.24382 0.12739,0.0104 0.1785,-0.99315 0.11358,-2.23007 l -0.11804,-2.24896 h 0.34944 0.34945 v 3.175 c 0,1.74625 -0.0507,3.175 -0.11265,3.175 -0.062,0 -1.01446,-1.01359 -2.11667,-2.25243 l -2.00401,-2.25243 v 2.25243 2.25243 h -0.39688 -0.39687 z m 7.20989,2.85208 c -0.32742,-0.15791 -0.59531,-0.44144 -0.59531,-0.63005 v -0.34295 l 0.92354,0.38588 0.92353,0.38588 0.52567,-0.52567 c 0.6861,-0.6861 0.45122,-1.22979 -0.80903,-1.87272 -1.70576,-0.87022 -1.97443,-2.17903 -0.62836,-3.06101 0.73559,-0.48197 2.23965,-0.27413 2.23965,0.30949 v 0.3693 l -0.67878,-0.25807 c -0.78509,-0.29849 -1.70247,0.0667 -1.70247,0.6778 0,0.2134 0.59531,0.81569 1.32292,1.33842 l 1.32291,0.95042 v 0.76893 c 0,1.46181 -1.39863,2.20155 -2.84427,1.50435 z m 5.33673,-0.17595 c -2.96018,-1.80511 -0.63073,-6.89768 2.5521,-5.57931 0.42696,0.17685 0.77628,0.48569 0.77628,0.68632 0,0.42318 -0.42231,0.48714 -0.66146,0.10019 -0.0899,-0.14552 -0.57321,-0.26458 -1.07395,-0.26458 -2.08055,0 -2.97184,2.70108 -1.40749,4.26543 l 0.5478,0.54781 0.96682,-0.11484 c 0.53175,-0.0632 1.17518,-0.20638 1.42984,-0.31826 0.29152,-0.12808 0.46302,-0.0899 0.46302,0.10297 0,0.34167 -1.57483,1.07368 -2.30661,1.07215 -0.25933,-5.4e-4 -0.83819,-0.22459 -1.28635,-0.49788 z m 5.18046,-2.25762 c 0,-1.51606 -0.0723,-2.94481 -0.1606,-3.175 l -0.1606,-0.41851 h 1.61581 c 0.90082,0 1.61581,0.11708 1.61581,0.26458 0,0.14552 -0.47625,0.26458 -1.05833,0.26458 h -1.05834 v 1.19063 1.19062 h 0.94166 c 0.5604,0 0.87545,0.10713 0.77813,0.26459 -0.0899,0.14552 -0.51368,0.26458 -0.94165,0.26458 h -0.77814 v 1.19063 1.19062 h 1.05834 c 0.58208,0 1.05833,0.11906 1.05833,0.26458 0,0.14553 -0.65485,0.26459 -1.45521,0.26459 h -1.45521 z m 4.75889,0.1768 c -0.002,-1.41883 -0.0754,-2.84758 -0.16315,-3.175 -0.29161,-1.08813 0.36409,-0.62253 2.32769,1.65286 l 1.94011,2.24818 0.0764,-2.24818 0.0765,-2.24817 h 0.38657 0.38658 v 3.175 c 0,1.74625 -0.0979,3.175 -0.21763,3.175 -0.11969,0 -1.10196,-1.03081 -2.18281,-2.29069 l -1.96519,-2.29069 -0.0764,2.29069 c -0.10534,3.15654 -0.58412,2.92147 -0.58862,-0.289 z m 7.14736,-0.1768 c 0,-1.51606 -0.0723,-2.94481 -0.1606,-3.175 l -0.1606,-0.41851 1.41737,0.004 c 0.77956,0.002 1.71503,0.15263 2.07883,0.33441 0.96978,0.48456 1.64479,1.95616 1.46142,3.18604 -0.29244,1.96141 -1.39889,2.82565 -3.61757,2.82565 h -1.01885 z m 3.0651,1.67957 c 0.20463,-0.16982 0.5033,-0.74686 0.66373,-1.28229 l 0.29167,-0.97352 -0.40995,-0.98115 c -0.40568,-0.97093 -1.22552,-1.50696 -2.30486,-1.50696 h -0.51194 v 2.68046 2.68045 l 0.94965,-0.15411 c 0.52231,-0.0848 1.11707,-0.29305 1.3217,-0.46288 z m 3.23431,-2.09858 -0.0817,-3.1755 1.52135,5e-4 c 0.83752,2.7e-4 1.52136,0.11943 1.52136,0.26508 0,0.14552 -0.47625,0.26458 -1.05833,0.26458 h -1.05834 v 1.19063 1.19062 h 0.94166 c 0.5604,0 0.87545,0.10713 0.77813,0.26459 -0.0899,0.14552 -0.51368,0.26458 -0.94165,0.26458 h -0.77814 v 1.19063 1.19062 h 1.05834 c 0.58208,0 1.05833,0.11906 1.05833,0.26458 0,0.14553 -0.64784,0.26459 -1.43965,0.26459 h -1.43965 z m 4.80948,0.59581 c -0.002,-1.41883 -0.0754,-2.84758 -0.16315,-3.175 -0.29161,-1.08813 0.36409,-0.62253 2.32769,1.65286 l 1.94011,2.24818 0.0764,-2.24818 0.0764,-2.24817 h 0.38657 0.38658 v 3.175 c 0,1.74625 -0.0979,3.175 -0.21763,3.175 -0.11969,0 -1.10196,-1.03081 -2.18281,-2.29069 l -1.96519,-2.29069 -0.0765,2.29069 c -0.10534,3.15654 -0.58412,2.92147 -0.58862,-0.289 z m 7.94111,2.11626 c -1.78287,-0.89065 -1.9845,-3.60132 -0.38001,-5.10867 0.7872,-0.73953 2.64283,-0.89598 3.37914,-0.2849 0.67783,0.56255 0.25624,0.83585 -0.6898,0.44718 -1.09881,-0.45143 -1.88082,-0.15803 -2.58251,0.9689 -0.64731,1.03961 -0.52419,2.13689 0.3434,3.06057 l 0.59124,0.62946 0.92604,-0.1109 c 0.50932,-0.061 1.1344,-0.20244 1.38906,-0.31432 0.29152,-0.12808 0.46303,-0.0899 0.46303,0.10297 0,0.30965 -1.54823,1.07349 -2.17432,1.07273 -0.18657,-2.3e-4 -0.75595,-0.20859 -1.26527,-0.46302 z m 5.02709,-2.29306 c 0,-1.51606 -0.0723,-2.94481 -0.1606,-3.175 l -0.1606,-0.41851 h 1.6158 c 0.90082,0 1.61581,0.11708 1.61581,0.26458 0,0.14552 -0.47625,0.26458 -1.05833,0.26458 h -1.05833 v 1.19063 1.19062 h 0.94165 c 0.5604,0 0.87545,0.10713 0.77814,0.26459 -0.0899,0.14552 -0.51369,0.26458 -0.94166,0.26458 h -0.77813 v 1.19063 1.19062 h 1.05833 c 0.58208,0 1.05833,0.11906 1.05833,0.26458 0,0.14553 -0.65484,0.26459 -1.45521,0.26459 h -1.4552 z m -73.027804,-9.55397 c -0.13985,-0.36783 -0.48515,-1.58822 -0.76733,-2.71198 -2.34289,-9.33017 -1.2885,-19.36337 2.94329,-28.00734 5.31014,-10.84665 15.191954,-18.869016 26.798714,-21.756076 3.46372,-0.86156 6.13556,-1.17338 10.05417,-1.17338 10.2097,0 19.26795,3.37168 26.97999,10.042536 11.97927,10.36197 16.95255,27.51799 12.35532,42.62131 l -0.4631,1.52143 -8.25746,0.0699 -8.25746,0.0699 v -11.24856 -11.24856 h -4.49792 -4.49791 v 11.24479 11.24479 H 118.42301 92.355006 Z m 25.667384,-21.82079 v -17.99167 h -4.49792 -4.49792 v 17.99167 17.99166 h 4.49792 4.49792 z m 22.42983,13.4276 0.0725,-4.43177 h -4.63661 -4.6366 v 4.50417 4.50416 l 4.56406,-0.0724 4.56406,-0.0724 z"
       id="path8" /></g></svg>
